# Blender 4.1.1
# www.blender.org
mtllib mob.mtl
o 髪
v -0.975581 10.879593 -0.500000
v -0.975139 10.880081 -0.000000
v -0.976417 10.878670 -0.891511
v -0.966278 11.141729 -0.500000
v -1.002530 9.730628 -0.543228
v -0.965967 11.141994 -0.000000
v -1.008922 9.805742 -0.934739
v -1.000076 9.609331 -0.043228
v -0.949279 9.614001 0.456772
v -0.902908 9.616473 0.956772
v -0.975251 10.879958 0.500000
v -0.966192 11.141804 0.500000
v -0.975420 10.879771 1.000000
v -0.966373 11.141649 1.000000
v -0.956812 11.403284 1.000000
v -0.957061 11.403112 0.500000
v -1.003018 10.617039 1.000000
v -0.450058 11.533514 1.000000
v -0.948617 11.643280 1.000000
v -0.526966 10.602789 1.000000
v -0.811189 11.822836 0.908606
v -0.948693 11.643236 0.500000
v -0.446755 11.628347 1.000000
v -0.375095 11.809372 0.908606
v 0.053431 11.612154 1.000000
v 0.045609 11.372681 1.000000
v 0.059410 11.795179 0.908606
v 0.553165 11.595831 1.000000
v 0.493914 11.780987 0.908606
v 0.927285 11.767359 0.908606
v 0.480404 11.948311 0.376981
v 0.968365 11.822476 0.454303
v 0.968520 11.822398 -0.000000
v 1.050524 11.581013 0.500000
v 1.050713 11.580894 -0.000000
v 1.042179 11.342182 -0.000000
v 1.050386 11.581100 -0.500000
v 0.968265 11.822527 -0.454303
v 1.042055 11.342274 0.500000
v 1.042490 11.341951 1.000000
v 1.032927 11.083092 0.500000
v 1.032838 11.083174 1.000000
v 1.023762 10.824602 1.000000
v 1.023892 10.824450 0.500000
v 0.925004 9.611501 0.956772
v 0.967756 9.610757 0.456772
v 1.064057 9.605802 -0.043228
v 1.069952 9.723564 -0.543228
v 1.023980 10.824347 -0.000000
v 1.033105 11.082930 -0.000000
v 1.023541 10.824863 -0.500000
v 1.032784 11.083221 -0.500000
v 1.041966 11.342339 -0.500000
v 1.032447 11.083529 -0.953393
v 1.041791 11.342468 -0.953393
v 1.022704 10.825851 -0.891511
v 0.524504 10.838112 -0.953393
v 1.032561 9.818211 -0.946178
v 1.085957 9.789651 -0.934739
v 0.532776 9.821706 -1.008060
v 0.033103 9.824184 -1.008060
v -0.467077 9.826329 -1.008060
v -0.967083 9.828808 -0.946178
v -0.474918 10.866403 -0.953393
v 0.025304 10.852216 -0.953393
v 0.035420 11.112449 -0.953393
v -0.465430 11.127564 -0.953393
v -0.456378 11.388239 -0.953393
v -0.966594 11.141461 -0.953393
v -0.957234 11.402992 -0.953393
v -0.948928 11.643097 -0.953393
v -0.957066 11.403109 -0.500000
v -0.948662 11.643253 -0.500000
v -0.848070 11.880733 -0.454303
v -0.948372 11.643425 -0.000000
v -0.848732 11.880425 -0.908606
v -0.393004 11.866415 -0.908606
v -0.447539 11.628122 -0.953393
v 0.053431 11.612154 -0.953393
v 0.045492 11.372683 -0.953393
v 0.543214 11.357159 -0.953393
v 0.534139 11.097340 -0.953393
v 0.552028 11.596199 -0.953393
v 0.515197 11.836828 -0.908606
v 1.050094 11.581285 -0.953393
v 0.967612 11.822857 -0.908606
v 0.480404 11.948311 -0.454561
v 0.061253 11.851629 -0.908606
v 0.064855 11.961884 -0.454561
v -0.350695 11.975456 -0.454561
v -0.350695 11.975456 -0.038790
v 0.064855 11.961884 -0.038790
v 0.064855 11.961884 0.376981
v 0.480404 11.948311 -0.038790
v -0.350695 11.975456 0.376981
v -0.848122 11.880709 0.454303
v -0.847852 11.880835 -0.000000
v -0.956871 11.403243 -0.000000
v 1.027435 10.531664 1.000000
v 1.050866 11.580797 1.000000
v 0.545246 11.356394 1.000000
v 0.708151 10.541752 1.000000
v 0.618433 10.570065 1.000000
v 0.174997 10.584549 1.000000
v -0.042781 10.564774 1.000000
v -0.527047 10.580591 1.000000
vn -0.9997 0.0234 0.0009
vn -0.9994 0.0350 0.0009
vn -0.9995 0.0302 0.0021
vn -0.9994 0.0355 0.0021
vn -0.9994 0.0355 0.0006
vn -0.9995 0.0227 0.0207
vn -0.9998 0.0193 0.0096
vn -0.9948 0.0161 0.1009
vn -0.9954 -0.0236 0.0924
vn -0.9998 -0.0205 -0.0002
vn -0.9994 0.0346 -0.0004
vn -0.9994 0.0346 -0.0002
vn -0.9984 -0.0573 -0.0004
vn -0.9994 0.0345 -0.0003
vn -0.9993 0.0365 -0.0003
vn -0.9994 0.0349 0.0005
vn -0.9994 0.0341 0.0005
vn -0.0000 -0.0000 1.0000
vn -0.7941 0.6078 0.0001
vn 0.0133 0.4455 0.8952
vn -0.9994 0.0348 0.0001
vn 0.0138 0.4463 0.8948
vn 0.0144 0.4461 0.8949
vn 0.0146 0.4463 0.8948
vn 0.0312 0.9536 0.2994
vn 0.0140 0.4462 0.8948
vn 0.0312 0.9919 0.1232
vn 0.1957 0.9368 0.2899
vn 0.9317 0.3408 0.1256
vn 0.2497 0.9683 -0.0001
vn 0.9467 0.3222 0.0003
vn 0.9994 -0.0357 -0.0007
vn 0.9994 -0.0357 0.0003
vn 0.9467 0.3222 -0.0004
vn 0.9467 0.3221 -0.0005
vn 0.9994 -0.0355 0.0004
vn 0.9994 -0.0355 -0.0009
vn 0.9994 -0.0352 0.0003
vn 0.9993 -0.0373 -0.0009
vn 0.9994 -0.0352 0.0002
vn 0.9994 -0.0351 0.0002
vn 0.9967 -0.0812 0.0003
vn 0.9994 -0.0349 0.0003
vn 0.9952 -0.0491 0.0852
vn 0.9817 0.0256 0.1888
vn 0.9993 0.0322 0.0194
vn 0.9989 -0.0462 0.0002
vn 0.9994 -0.0353 0.0002
vn 0.9994 -0.0353 -0.0007
vn 0.9991 0.0421 -0.0008
vn 0.9994 -0.0358 -0.0009
vn 0.9994 -0.0358 -0.0022
vn 0.9994 -0.0354 -0.0004
vn 0.9994 -0.0354 -0.0007
vn 0.9993 -0.0380 -0.0008
vn 0.9993 -0.0361 -0.0008
vn 0.9981 0.0610 -0.0020
vn 0.1141 -0.2361 -0.9650
vn 0.1244 0.0543 -0.9907
vn 0.1231 0.0550 -0.9909
vn 0.0003 0.0537 -0.9986
vn 0.0002 0.0531 -0.9986
vn -0.1224 0.0512 -0.9912
vn 0.0015 0.0525 -0.9986
vn -0.0000 -0.0000 -1.0000
vn 0.0015 0.0531 -0.9986
vn -0.9994 0.0346 0.0006
vn -0.9994 0.0358 0.0004
vn -0.9994 0.0350 0.0004
vn -0.9994 0.0350 0.0006
vn -0.9209 0.3899 0.0011
vn -0.9208 0.3900 0.0004
vn -0.9213 0.3889 0.0004
vn 0.0307 0.9995 -0.0007
vn 0.0056 0.1835 -0.9830
vn 0.0055 0.1832 -0.9831
vn 0.0058 0.1834 -0.9830
vn 0.0057 0.1838 -0.9829
vn 0.0059 0.1838 -0.9829
vn 0.0055 0.1841 -0.9829
vn 0.9467 0.3222 -0.0011
vn 0.0309 0.9995 0.0007
vn 0.9463 0.3232 -0.0005
vn 0.9994 -0.0347 -0.0004
vn 0.9994 -0.0352 -0.0007
vn 0.2440 0.9460 -0.2136
vn 0.0317 0.9712 -0.2360
vn 0.0060 0.1836 -0.9830
vn 0.0317 0.9712 -0.2361
vn 0.0316 0.9712 -0.2362
vn -0.1829 0.9597 -0.2134
vn 0.0326 0.9995 -0.0000
vn -0.1871 0.9823 -0.0000
vn 0.2498 0.9683 -0.0000
vn 0.2498 0.9683 0.0001
vn 0.2497 0.9683 -0.0000
vn 0.0311 0.9536 0.2994
vn -0.1871 0.9823 0.0002
vn -0.1354 0.9475 0.2898
vn -0.1870 0.9824 -0.0000
vn -0.1870 0.9824 -0.0001
vn -0.9209 0.3899 0.0004
vn -0.9209 0.3899 -0.0004
vn -0.9047 0.4073 0.1254
vn 0.0306 0.9918 0.1239
vn -0.9994 0.0354 -0.0006
vn -0.9994 0.0354 0.0004
vn -0.9994 0.0352 0.0004
vn -0.9994 0.0348 -0.0004
vn -0.9994 0.0348 0.0006
vn -0.9994 0.0352 0.0007
vn -0.9993 0.0375 0.0007
vn -0.1248 -0.2230 -0.9668
vn -0.1211 0.0505 -0.9914
vn 0.9981 0.0402 0.0476
vn 0.9994 -0.0350 -0.0004
vn 0.9994 -0.0352 -0.0004
vn 0.9994 -0.0350 0.0004
vn 0.9994 -0.0349 0.0004
vn 0.9994 -0.0350 -0.0007
vn 0.0135 0.4471 0.8944
vn 0.8338 0.5521 -0.0003
vn -0.9994 0.0349 -0.0004
vn -0.9994 0.0350 -0.0004
vt 0.500000 0.125000
vt 0.500000 0.187500
vt 0.532550 0.125000
vt 0.500000 0.250000
vt 0.532550 0.187500
vt 0.500000 0.062500
vt 0.500000 0.000000
vt 0.532550 0.000000
vt 0.532550 0.062500
vt 0.565100 0.000000
vt 0.565100 0.062500
vt 0.595050 0.000000
vt 0.532550 0.937500
vt 0.565100 1.000000
vt 0.532550 1.000000
vt 0.565100 0.937500
vt 0.595050 1.000000
vt 0.625000 0.000000
vt 0.595050 0.062500
vt 0.595050 0.937500
vt 0.625000 1.000000
vt 0.595050 0.875000
vt 0.625000 0.937500
vt 0.595050 0.812500
vt 0.565100 0.875000
vt 0.625000 0.875000
vt 0.625000 0.812500
vt 0.687500 0.687500
vt 0.750000 0.750000
vt 0.687500 0.750000
vt 0.625000 0.750000
vt 0.625000 0.687500
vt 0.595050 0.687500
vt 0.625000 0.625000
vt 0.595050 0.625000
vt 0.595050 0.562500
vt 0.565100 0.625000
vt 0.565100 0.687500
vt 0.625000 0.562500
vt 0.565100 0.750000
vt 0.532550 0.687500
vt 0.532550 0.750000
vt 0.500000 0.750000
vt 0.500000 0.687500
vt 0.500000 0.625000
vt 0.500000 0.562500
vt 0.532550 0.625000
vt 0.532550 0.562500
vt 0.500000 0.500000
vt 0.565100 0.500000
vt 0.565100 0.562500
vt 0.532550 0.500000
vt 0.500000 0.437500
vt 0.500000 0.375000
vt 0.500000 0.312500
vt 0.532550 0.312500
vt 0.532550 0.375000
vt 0.532550 0.250000
vt 0.565100 0.250000
vt 0.565100 0.312500
vt 0.595050 0.187500
vt 0.595050 0.250000
vt 0.565100 0.187500
vt 0.595050 0.125000
vt 0.625000 0.187500
vt 0.625000 0.250000
vt 0.812500 0.500000
vt 0.875000 0.500000
vt 0.875000 0.562500
vt 0.625000 0.312500
vt 0.595050 0.312500
vt 0.565100 0.375000
vt 0.595050 0.375000
vt 0.565100 0.437500
vt 0.532550 0.437500
vt 0.595050 0.437500
vt 0.625000 0.437500
vt 0.625000 0.500000
vt 0.595050 0.500000
vt 0.687500 0.500000
vt 0.687500 0.562500
vt 0.750000 0.500000
vt 0.625000 0.375000
vt 0.750000 0.562500
vt 0.812500 0.562500
vt 0.812500 0.625000
vt 0.750000 0.625000
vt 0.750000 0.687500
vt 0.687500 0.625000
vt 0.812500 0.687500
vt 0.875000 0.625000
vt 0.875000 0.687500
vt 0.812500 0.750000
vt 0.625000 0.125000
vt 0.625000 0.062500
vt 0.875000 0.750000
vt 0.565100 0.125000
vt 0.532550 0.812500
vt 0.595050 0.750000
vt 0.565100 0.812500
vt 0.532550 0.875000
s 0
f 2/1/1 1/2/1 5/2/1
f 6/3/2 1/2/2 2/1/2
f 1/2/3 3/4/3 7/4/3
f 4/5/4 3/4/4 1/2/4
f 6/3/5 4/5/5 1/2/5
f 1/2/6 7/4/6 5/2/6
f 2/1/7 5/2/7 8/1/7
f 2/1/8 8/1/8 9/6/8
f 11/6/9 9/6/9 10/7/9
f 2/1/10 9/6/10 11/6/10
f 14/8/11 12/9/11 11/6/11
f 12/9/12 2/1/12 11/6/12
f 11/6/13 10/7/13 13/7/13
f 14/8/14 11/6/14 13/7/14
f 15/10/15 12/9/15 14/8/15
f 15/10/16 16/11/16 12/9/16
f 19/12/17 16/11/17 15/10/17
f 20/13/18 15/14/18 17/15/18
f 20/13/18 18/16/18 15/14/18
f 18/16/18 19/17/18 15/14/18
f 21/18/19 22/19/19 19/12/19
f 23/20/20 21/21/20 19/17/20
f 19/12/21 22/19/21 16/11/21
f 18/16/18 23/20/18 19/17/18
f 25/22/18 23/20/18 18/16/18
f 23/20/22 24/23/22 21/21/22
f 25/22/23 24/23/23 23/20/23
f 28/24/18 25/22/18 26/25/18
f 25/22/18 18/16/18 26/25/18
f 25/22/24 27/26/24 24/23/24
f 29/27/24 27/26/24 25/22/24
f 29/27/24 25/22/24 28/24/24
f 31/28/25 27/29/25 29/30/25
f 30/31/26 29/27/26 28/24/26
f 32/32/27 29/30/27 30/31/27
f 32/32/28 31/28/28 29/30/28
f 34/33/29 32/32/29 30/31/29
f 33/34/30 31/28/30 32/32/30
f 35/35/31 33/34/31 32/32/31
f 35/35/31 32/32/31 34/33/31
f 37/36/32 35/35/32 36/37/32
f 35/35/33 39/38/33 36/37/33
f 38/39/34 33/34/34 35/35/34
f 38/39/35 35/35/35 37/36/35
f 35/35/36 34/33/36 39/38/36
f 34/33/37 40/40/37 39/38/37
f 36/37/38 39/38/38 41/41/38
f 39/38/39 40/40/39 42/42/39
f 39/38/40 42/42/40 41/41/40
f 41/41/41 42/42/41 43/43/41
f 44/44/42 43/43/42 45/43/42
f 41/41/43 43/43/43 44/44/43
f 44/44/44 45/43/44 46/44/44
f 49/45/45 46/44/45 47/45/45
f 49/45/46 47/45/46 48/46/46
f 49/45/47 44/44/47 46/44/47
f 50/47/48 44/44/48 49/45/48
f 52/48/49 50/47/49 49/45/49
f 49/45/50 48/46/50 51/46/50
f 52/48/51 49/45/51 51/46/51
f 56/49/52 52/48/52 51/46/52
f 55/50/53 53/51/53 52/48/53
f 53/51/54 50/47/54 52/48/54
f 56/49/55 54/52/55 52/48/55
f 55/50/56 52/48/56 54/52/56
f 51/46/57 59/49/57 56/49/57
f 57/53/58 54/52/58 56/49/58
f 56/49/59 60/53/59 57/53/59
f 56/49/60 58/49/60 60/53/60
f 57/53/61 60/53/61 61/54/61
f 65/54/62 61/54/62 62/55/62
f 64/55/63 62/55/63 63/4/63
f 65/54/64 62/55/64 64/55/64
f 67/56/65 66/57/65 65/54/65
f 66/57/65 57/53/65 65/54/65
f 67/56/65 65/54/65 64/55/65
f 57/53/66 61/54/66 65/54/66
f 69/58/65 67/56/65 64/55/65
f 70/59/65 68/60/65 67/56/65
f 68/60/65 66/57/65 67/56/65
f 70/59/65 67/56/65 69/58/65
f 73/61/67 71/62/67 70/59/67
f 71/62/65 68/60/65 70/59/65
f 72/63/68 70/59/68 69/58/68
f 73/61/69 70/59/69 72/63/69
f 75/64/70 73/61/70 72/63/70
f 73/61/71 74/65/71 76/66/71
f 75/64/72 74/65/72 73/61/72
f 73/61/73 76/66/73 71/62/73
f 77/67/74 76/68/74 74/69/74
f 76/66/75 77/70/75 78/71/75
f 76/66/76 78/71/76 71/62/76
f 71/62/65 78/71/65 68/60/65
f 78/71/65 80/72/65 68/60/65
f 77/70/77 79/73/77 78/71/77
f 78/71/65 79/73/65 80/72/65
f 79/73/65 81/74/65 80/72/65
f 80/72/65 81/74/65 82/75/65
f 68/60/65 80/72/65 66/57/65
f 80/72/65 82/75/65 66/57/65
f 66/57/65 82/75/65 57/53/65
f 57/53/65 82/75/65 54/52/65
f 81/74/65 54/52/65 82/75/65
f 79/73/65 83/76/65 81/74/65
f 83/76/65 55/50/65 81/74/65
f 81/74/65 55/50/65 54/52/65
f 83/76/78 84/77/78 86/78/78
f 79/73/79 84/77/79 83/76/79
f 83/76/65 85/79/65 55/50/65
f 83/76/80 86/78/80 85/79/80
f 86/78/81 38/39/81 37/36/81
f 84/80/82 38/39/82 86/78/82
f 86/78/83 37/36/83 85/79/83
f 85/79/84 53/51/84 55/50/84
f 85/79/85 37/36/85 53/51/85
f 84/80/86 87/81/86 38/39/86
f 88/82/87 87/81/87 84/80/87
f 79/73/88 88/83/88 84/77/88
f 88/82/89 89/84/89 87/81/89
f 88/82/89 90/85/89 89/84/89
f 88/82/90 77/67/90 90/85/90
f 77/70/88 88/83/88 79/73/88
f 77/67/91 74/69/91 90/85/91
f 90/85/92 91/86/92 92/87/92
f 74/69/93 91/86/93 90/85/93
f 90/85/92 92/87/92 89/84/92
f 92/87/92 93/88/92 31/28/92
f 91/86/92 93/88/92 92/87/92
f 89/84/92 92/87/92 94/89/92
f 92/87/92 31/28/92 94/89/92
f 33/34/94 94/89/94 31/28/94
f 38/39/95 94/89/95 33/34/95
f 38/39/96 87/81/96 94/89/96
f 89/84/92 94/89/92 87/81/92
f 31/28/97 93/88/97 27/29/97
f 95/90/97 27/29/97 93/88/97
f 91/86/92 95/90/92 93/88/92
f 97/91/98 96/92/98 95/90/98
f 96/92/99 24/93/99 95/90/99
f 95/90/25 24/93/25 27/29/25
f 97/91/100 95/90/100 91/86/100
f 74/69/101 97/91/101 91/86/101
f 75/64/102 97/94/102 74/65/102
f 96/95/103 97/94/103 75/64/103
f 21/18/104 96/95/104 22/19/104
f 96/92/105 21/96/105 24/93/105
f 96/95/103 75/64/103 22/19/103
f 22/19/106 75/64/106 98/97/106
f 75/64/107 72/63/107 98/97/107
f 98/97/108 72/63/108 4/5/108
f 16/11/109 98/97/109 6/3/109
f 22/19/109 98/97/109 16/11/109
f 98/97/110 4/5/110 6/3/110
f 72/63/111 69/58/111 4/5/111
f 4/5/112 69/58/112 3/4/112
f 69/58/113 64/55/113 3/4/113
f 64/55/114 63/4/114 3/4/114
f 51/46/115 48/46/115 59/49/115
f 53/51/116 36/37/116 50/47/116
f 37/36/117 36/37/117 53/51/117
f 36/37/118 41/41/118 50/47/118
f 50/47/119 41/41/119 44/44/119
f 40/40/18 102/98/18 99/42/18
f 34/33/120 100/99/120 40/40/120
f 100/99/18 101/100/18 40/40/18
f 40/40/18 101/100/18 102/98/18
f 100/99/18 28/24/18 101/100/18
f 28/24/18 26/25/18 101/100/18
f 101/100/18 26/25/18 104/101/18
f 101/100/18 104/101/18 103/98/18
f 30/31/121 28/24/121 100/99/121
f 34/33/122 30/31/122 100/99/122
f 26/25/18 106/13/18 105/101/18
f 26/25/18 18/16/18 106/13/18
f 16/11/123 6/3/123 12/9/123
f 12/9/124 6/3/124 2/1/124
o 立方体.002
v 1.401672 5.958836 -1.062644
v 1.654691 5.797762 -0.415611
v 0.239583 5.958836 -1.062644
v 1.003470 3.616566 -0.682326
v 1.003470 3.616566 -0.407964
v 0.145292 3.616566 -0.682326
v 1.714222 1.055878 -0.964823
v 0.248202 1.055878 -0.964823
v 1.714223 1.055878 -0.549212
v 1.714223 1.055878 0.282010
v 1.714223 0.026038 -0.549212
v 1.714223 0.026038 0.282010
v 1.714222 0.026038 -0.964823
v 0.248202 0.026038 -0.964823
v 0.248202 0.026038 -0.549212
v 0.248202 0.026038 0.282010
v 0.248202 1.055878 -0.549212
v 0.248202 1.055878 0.282010
v 0.145292 3.616566 -0.407964
v 0.145293 3.616566 0.140761
v 0.239583 5.797762 -0.415611
v 0.239583 5.797762 0.415611
v -0.000000 5.797762 -0.415611
v -0.000000 5.958836 -1.062644
v -0.239583 5.958836 -1.062644
v -0.239583 5.797762 -0.415611
v -0.239583 5.797762 0.415611
v -0.145292 3.616565 -0.407964
v -0.145292 3.616565 0.140761
v 0.000000 5.797762 0.415611
v -0.145293 3.616565 -0.682326
v -1.003470 3.616565 -0.682326
v -0.248202 1.055878 -0.964823
v -0.248202 1.055878 -0.549212
v -0.248202 1.055878 0.282010
v -0.248202 0.026037 -0.549212
v -0.248202 0.026037 0.282010
v -0.248202 0.026037 -0.964823
v -1.714223 0.026037 -0.964823
v -1.714222 0.026037 -0.549212
v -1.714222 0.026037 0.282010
v -1.714222 1.055878 -0.549212
v -1.714223 1.055878 -0.964823
v -1.714222 1.055878 0.282010
v -1.714222 1.055878 0.697621
v -1.003470 3.616565 0.140761
v -1.003470 3.616565 0.415124
v -1.714222 0.026037 0.697621
v -0.248202 0.026037 0.697621
v -0.248202 1.055878 0.697621
v -0.145292 3.616565 0.415124
v -0.239583 5.797762 0.831222
v 0.000000 5.797762 0.831222
v -1.510929 5.797762 0.691792
v -1.654692 5.797762 0.415611
v -1.654692 5.797762 -0.415611
v -1.401672 5.958836 -1.062644
v -1.003470 3.616565 -0.407963
v 0.239583 5.797762 0.831222
v 1.510930 5.797762 0.691792
v 0.145293 3.616566 0.415124
v 1.003470 3.616566 0.415124
v 1.714223 1.055878 0.697620
v 1.003470 3.616566 0.140761
v 1.654691 5.797762 0.415611
v 0.248202 1.055878 0.697621
v 0.248202 0.026038 0.697621
v 1.714223 0.026038 0.697620
v -0.670304 10.614283 0.944068
v -0.654779 11.089584 0.944068
v -0.670304 10.614283 0.859906
v -0.654779 11.089584 0.859906
v -0.146602 10.597178 0.944068
v -0.131077 11.072479 0.944068
v -0.146602 10.597178 0.859906
v -0.131077 11.072479 0.859906
v -0.662541 10.851934 0.944068
v -0.138839 10.834827 0.944068
v -0.315261 10.602686 0.944068
v -0.492782 10.608484 0.944068
v 1.189901 9.266917 -0.729431
v 1.163742 8.566982 -0.729431
v 0.594583 9.329311 -0.831222
v 1.824821 7.242451 -0.587787
v 1.189166 9.267120 -0.491251
v 1.189166 9.267120 -0.014890
v 1.824821 7.242451 -0.420429
v 0.316444 9.329311 -0.548997
v 0.316788 10.106966 -0.548997
v 0.316444 9.329311 0.097990
v -0.000000 9.329311 -0.548997
v -0.000000 9.329311 -0.831222
v 0.318667 10.102227 0.097990
v 0.000685 10.107822 0.097990
v 0.000464 10.107826 -0.548997
v -0.315844 10.109213 0.097990
v 0.000000 9.329311 0.097990
v 0.000000 9.139241 0.471542
v -0.316444 9.329311 0.097990
v -0.855147 9.228285 0.471541
v -1.202161 9.264242 -0.014890
v -0.316617 9.329399 -0.548997
v -0.313615 10.114338 -0.548997
v -0.594583 9.329311 -0.831222
v -1.190043 9.266926 -0.491251
v -1.191185 9.266673 -0.729431
v -2.020560 7.314409 -0.420429
v -2.020560 7.314409 -0.085712
v -2.020560 7.314409 -0.587787
v -1.485831 7.095280 -0.587787
v -2.696476 5.588271 -0.506538
v -2.215599 5.391210 -0.506538
v -2.215599 5.391210 -0.379804
v -2.416410 4.901182 -0.729431
v -1.485831 7.095280 -0.420429
v -2.416411 4.901182 -0.491251
v -2.741973 4.106730 -0.491251
v -2.416410 4.901182 -0.014890
v -2.741973 4.106730 -0.729431
v -2.215599 5.391210 -0.126337
v -2.215599 5.391210 0.000397
v -1.485830 7.095280 -0.085712
v -1.485831 7.095280 0.081646
v -1.120084 8.598376 -0.014890
v -1.091910 8.620049 0.223290
v -1.145806 8.578590 -0.491251
v -1.152981 8.573071 -0.729431
v -1.242617 9.255283 0.223290
v -2.020560 7.314409 0.081646
v -2.696476 5.588271 0.000397
v -2.696476 5.588271 -0.126337
v -2.897286 5.098243 0.223290
v -2.696475 5.588273 0.631087
v -2.897286 5.098243 -0.014890
v -2.215598 5.391211 0.631087
v -2.416410 4.901182 0.631087
v -2.897286 5.098243 0.631087
v -2.416410 4.901182 0.223290
v -2.741973 4.106730 0.223290
v -3.222850 4.303790 0.223290
v -2.741973 4.106730 -0.014890
v -3.222850 4.303791 -0.014890
v -3.222850 4.303791 -0.491251
v -3.222850 4.303791 -0.729431
v -2.897287 5.098243 -0.491251
v -2.696476 5.588271 -0.379804
v -2.897287 5.098243 -0.729431
v 0.802764 9.139241 0.471541
v 1.189166 9.267120 0.223290
v 1.165855 8.565175 0.223290
v 1.824821 7.242451 0.081646
v 1.270283 7.079844 0.081646
v 1.270283 7.079844 -0.085712
v 1.819758 5.309396 0.000397
v 1.163459 8.567224 -0.014890
v 1.162647 8.567919 -0.491251
v 1.270283 7.079844 -0.420429
v 1.270283 7.079844 -0.587787
v 1.819758 5.309395 -0.506538
v 2.318448 5.455626 -0.506538
v 1.968772 4.801214 -0.729432
v 1.819758 5.309395 -0.379805
v 1.968772 4.801214 -0.491252
v 2.467462 4.947445 -0.729432
v 2.709049 4.123563 -0.729432
v 2.467462 4.947445 -0.491252
v 2.709049 4.123563 -0.491252
v 2.709049 4.123563 -0.014891
v 2.210359 3.977333 -0.491252
v 2.210359 3.977333 -0.014891
v 2.210359 3.977333 0.223290
v 1.968772 4.801214 -0.014891
v 1.819758 5.309396 -0.126337
v 1.968772 4.801214 0.223290
v 2.467462 4.947445 0.223290
v 1.968772 4.801214 0.631086
v 1.819758 5.309396 0.631087
v 2.318448 5.455627 0.631087
v 2.467462 4.947445 0.631086
v 2.318448 5.455626 0.000397
v 2.318448 5.455626 -0.126337
v 1.824821 7.242451 -0.085712
v 2.467462 4.947444 -0.014891
v 2.318448 5.455626 -0.379805
v 2.709049 4.123563 0.223290
v 2.210360 3.977333 -0.729432
v -0.893522 9.962573 0.892597
v -0.893522 9.962573 -0.892597
v -0.835243 11.746817 0.892597
v 0.890720 9.904294 0.892597
v 0.949000 11.688538 0.892597
v 0.890720 9.904294 -0.892597
v 0.949000 11.688538 -0.892597
v -0.835243 11.746817 -0.892597
v -0.038766 10.442871 0.983111
v -0.038766 10.442871 0.875159
v -0.030412 10.698622 0.983111
v 0.069129 10.439348 0.983111
v 0.077482 10.695099 0.983111
v 0.069129 10.439348 0.875159
v 0.077482 10.695099 0.875159
v -0.030412 10.698622 0.875159
vn 0.8898 -0.2165 -0.4018
vn -0.0000 -0.1603 -0.9871
vn 0.9582 -0.2861 -0.0000
vn 0.9636 0.2675 -0.0000
vn -0.0000 0.1097 -0.9940
vn 1.0000 -0.0000 -0.0000
vn -0.0000 -1.0000 -0.0000
vn -0.0000 -0.0000 -1.0000
vn -1.0000 -0.0000 -0.0000
vn -0.9992 -0.0402 -0.0000
vn -0.9991 0.0432 -0.0000
vn -0.9991 0.0419 0.0104
vn -0.0000 -0.9704 -0.2416
vn 0.9991 0.0419 0.0104
vn 0.9991 0.0432 -0.0000
vn 0.9992 -0.0402 -0.0000
vn -0.9636 0.2675 -0.0000
vn -0.0000 -0.0000 1.0000
vn -0.0000 0.1097 0.9940
vn -0.0000 -0.1874 0.9823
vn -0.1078 -0.1497 0.9828
vn -0.8574 -0.2561 0.4463
vn -0.9582 -0.2861 -0.0000
vn -0.8898 -0.2165 -0.4018
vn 0.1078 -0.1497 0.9828
vn 0.8574 -0.2561 0.4463
vn 0.9995 -0.0326 -0.0000
vn -0.9995 0.0326 -0.0000
vn 0.0326 0.9995 -0.0000
vn -0.0326 -0.9995 -0.0000
vn 0.1955 -0.0073 -0.9807
vn 0.1043 0.9945 -0.0005
vn 0.9541 0.2994 0.0027
vn 0.9541 0.2995 -0.0000
vn 0.0711 0.9975 -0.0000
vn 0.0666 0.9956 0.0656
vn -0.0000 1.0000 -0.0000
vn 1.0000 -0.0004 -0.0029
vn 1.0000 -0.0029 -0.0000
vn 0.0176 0.9998 0.0073
vn 0.0027 1.0000 -0.0000
vn 0.0044 1.0000 -0.0000
vn -0.0000 0.8913 0.4535
vn -1.0000 0.0008 -0.0034
vn -0.0899 0.9865 0.1371
vn 0.0955 0.9176 0.3859
vn -0.0733 0.9973 0.0002
vn -1.0000 0.0038 0.0003
vn 0.0207 0.9998 0.0080
vn -0.0669 0.9956 0.0656
vn -0.0000 1.0000 -0.0003
vn -0.0711 0.9975 0.0038
vn 0.0003 1.0000 -0.0000
vn -0.9203 0.3912 0.0040
vn -0.1045 0.9945 -0.0006
vn -0.9216 0.3876 -0.0213
vn -0.9202 0.3914 -0.0000
vn -0.0253 -0.0617 -0.9978
vn -0.0166 -0.0405 -0.9990
vn -0.9312 0.3646 -0.0000
vn 0.1471 0.3590 -0.9217
vn 0.9193 -0.3937 -0.0000
vn 0.9253 -0.3792 -0.0000
vn 0.9716 -0.2364 -0.0000
vn 0.9661 -0.2410 -0.0923
vn 0.9734 -0.2252 -0.0432
vn 0.9748 -0.2219 -0.0242
vn 0.9747 -0.2234 -0.0000
vn -0.3235 -0.0178 -0.9461
vn -0.1136 -0.0269 0.9932
vn -0.0343 -0.0837 0.9959
vn -0.0166 -0.0405 0.9990
vn -0.9221 0.3870 -0.0000
vn -0.9153 0.3772 -0.1413
vn 0.3792 0.9253 -0.0000
vn -0.9253 0.3792 -0.0000
vn -0.3792 -0.9253 -0.0000
vn 0.0410 0.9982 0.0445
vn -0.3142 0.9494 -0.0000
vn 0.1098 0.9364 0.3334
vn 0.6774 -0.0225 0.7353
vn 0.0187 -0.0639 0.9978
vn 0.0123 -0.0420 0.9990
vn -0.9974 -0.0716 -0.0000
vn -0.9551 -0.2964 -0.0000
vn -0.9974 -0.0710 0.0094
vn -0.9974 -0.0717 0.0016
vn -0.9974 -0.0719 -0.0043
vn -0.9974 -0.0721 -0.0000
vn 0.0272 -0.0928 -0.9953
vn 0.0123 -0.0420 -0.9990
vn -0.1092 0.3723 -0.9217
vn -0.9596 -0.2814 -0.0000
vn 0.9596 0.2814 -0.0000
vn 0.2814 -0.9596 -0.0000
vn -0.2814 0.9596 -0.0000
vn 0.9639 0.2663 -0.0000
vt 0.375000 0.062500
vt 0.375000 0.000000
vt 0.375000 0.937500
vt 0.375000 1.000000
vt 0.375000 0.187500
vt 0.187500 0.687500
vt 0.125000 0.750000
vt 0.125000 0.687500
vt 0.187500 0.750000
vt 0.187500 0.562500
vt 0.125000 0.562500
vt 0.187500 0.687500
vt 0.250000 0.750000
vt 0.250000 0.687500
vt 0.187500 0.562500
vt 0.312500 0.687500
vt 0.312500 0.750000
vt 0.250000 0.562500
vt 0.312500 0.562500
vt 0.312500 0.562500
vt 0.312500 0.687500
vt 0.375000 0.750000
vt 0.375000 0.812500
vt 0.312500 0.687500
vt 0.375000 0.687500
vt 0.375000 0.562500
vt 0.375000 0.500000
vt 0.375000 0.437500
vt 0.312500 0.500000
vt 0.250000 0.500000
vt 0.187500 0.500000
vt 0.375000 0.312500
vt 0.375000 0.250000
vt 0.125000 0.500000
vt 0.625000 0.500000
vt 0.625000 0.750000
vt 0.500000 0.750000
vt 0.625000 0.250000
vt 0.500000 0.000000
vt 0.875000 0.500000
vt 0.625000 0.000000
vt 0.875000 0.750000
vt 0.565780 0.000000
vt 0.875000 0.687500
vt 0.812500 0.750000
vt 0.625000 0.062500
vt 0.625000 0.187500
vt 0.812500 0.687500
vt 0.875000 0.562500
vt 0.750000 0.750000
vt 0.812500 0.562500
vt 0.750000 0.687500
vt 0.750000 0.562500
vt 0.687500 0.562500
vt 0.750000 0.500000
vt 0.687500 0.687500
vt 0.687500 0.500000
vt 0.625000 0.562500
vt 0.625000 0.687500
vt 0.687500 0.750000
vt 0.565780 0.750000
vt 0.565780 0.687500
vt 0.565780 0.562500
vt 0.565780 0.500000
vt 0.812500 0.500000
vt 0.565780 0.250000
vt 0.565780 0.187500
vt 0.565780 0.062500
vt 0.625000 1.000000
s 0
f 108/102/125 110/103/125 107/103/125
f 109/104/126 107/105/126 110/105/126
f 108/102/127 111/102/127 110/103/127
f 110/103/128 111/102/128 115/102/128
f 110/105/129 114/104/129 112/104/129
f 109/104/126 110/105/126 112/104/126
f 110/105/129 113/105/129 114/104/129
f 110/103/128 115/102/128 113/103/128
f 115/102/130 119/103/130 113/103/130
f 116/106/128 115/102/128 111/102/128
f 118/106/130 115/102/130 116/106/130
f 115/102/130 117/102/130 119/103/130
f 118/106/130 117/102/130 115/102/130
f 121/107/131 119/108/131 117/109/131
f 121/107/131 120/110/131 119/108/131
f 113/105/132 119/105/132 120/104/132
f 114/110/133 120/110/133 121/107/133
f 123/107/133 121/107/133 122/111/133
f 121/107/131 118/112/131 122/111/131
f 114/110/133 121/107/133 123/107/133
f 121/107/131 117/109/131 118/112/131
f 112/110/134 114/110/134 123/107/134
f 125/107/134 123/107/134 124/111/134
f 123/107/133 122/111/133 124/111/133
f 112/110/134 123/107/134 125/107/134
f 127/113/135 112/110/135 125/107/135
f 127/113/135 125/107/135 126/111/135
f 125/107/134 124/111/134 126/111/134
f 127/113/136 109/110/136 112/110/136
f 127/113/137 130/114/137 109/110/137
f 129/115/131 127/113/131 128/116/131
f 127/113/135 126/111/135 128/116/135
f 127/113/137 129/115/137 130/114/137
f 132/117/137 130/114/137 129/115/137
f 132/117/137 131/118/137 130/114/137
f 132/117/138 137/118/138 131/118/138
f 132/117/131 136/119/131 133/120/131
f 135/121/139 132/117/139 133/120/139
f 132/117/139 134/122/139 137/118/139
f 135/121/139 134/122/139 132/117/139
f 132/117/131 129/115/131 136/119/131
f 138/123/129 137/124/129 139/124/129
f 131/124/126 137/124/126 138/123/126
f 137/118/140 134/122/140 140/122/140
f 137/118/140 140/122/140 139/118/140
f 140/122/130 144/118/130 139/118/130
f 141/121/140 140/122/140 134/122/140
f 143/121/130 140/122/130 141/121/130
f 140/122/130 142/125/130 144/118/130
f 143/121/130 142/125/130 140/122/130
f 139/124/132 144/124/132 145/123/132
f 146/126/131 145/123/131 144/118/131
f 146/126/131 144/118/131 142/125/131
f 146/126/133 147/127/133 150/127/133
f 146/126/131 143/121/131 147/127/131
f 149/123/133 145/123/133 146/126/133
f 146/126/133 150/127/133 148/126/133
f 149/123/133 146/126/133 148/126/133
f 146/126/131 142/125/131 143/121/131
f 150/127/133 154/128/133 151/128/133
f 153/128/141 150/127/141 151/128/141
f 148/126/141 150/127/141 152/127/141
f 153/128/141 152/127/141 150/127/141
f 150/127/133 147/127/133 154/128/133
f 154/128/131 147/127/131 143/121/131
f 151/128/142 154/128/142 155/129/142
f 154/128/131 143/121/131 155/130/131
f 156/130/130 155/130/130 143/121/130
f 151/128/142 155/129/142 156/129/142
f 153/128/143 151/128/143 156/129/143
f 157/130/140 156/130/140 141/121/140
f 153/128/143 156/129/143 157/129/143
f 156/130/130 143/121/130 141/121/130
f 158/129/144 153/128/144 157/129/144
f 133/120/139 158/130/139 157/130/139
f 157/130/140 141/121/140 135/121/140
f 133/120/139 157/130/139 135/121/139
f 159/131/131 158/130/131 133/120/131
f 158/129/145 160/128/145 153/128/145
f 161/127/146 153/128/146 160/128/146
f 162/126/147 152/127/147 161/127/147
f 161/127/147 152/127/147 153/128/147
f 162/126/148 163/123/148 138/123/148
f 162/126/147 164/126/147 152/127/147
f 162/126/147 138/123/147 164/126/147
f 148/126/141 152/127/141 164/126/141
f 138/123/141 148/126/141 164/126/141
f 131/124/126 138/123/126 163/123/126
f 159/131/131 128/116/131 165/132/131
f 159/131/131 136/119/131 128/116/131
f 159/131/131 133/120/131 136/119/131
f 165/133/149 168/134/149 166/134/149
f 165/133/144 167/133/144 168/134/144
f 128/116/135 167/132/135 165/132/135
f 168/134/143 167/133/143 172/133/143
f 171/106/150 166/134/150 168/134/150
f 168/134/128 169/134/128 116/106/128
f 168/134/143 172/133/143 169/134/143
f 171/106/127 168/134/127 170/106/127
f 168/134/128 116/106/128 170/106/128
f 172/133/142 174/134/142 169/134/142
f 167/132/134 124/111/134 172/132/134
f 172/133/142 173/133/142 174/134/142
f 124/111/133 173/132/133 172/132/133
f 174/135/131 173/132/131 122/111/131
f 169/134/130 174/134/130 118/106/130
f 174/135/131 122/111/131 118/112/131
f 124/111/133 122/111/133 173/132/133
f 170/106/127 108/102/127 171/106/127
f 116/106/128 111/102/128 170/106/128
f 170/106/127 111/102/127 108/102/127
f 169/134/130 118/106/130 116/106/130
f 167/132/134 126/111/134 124/111/134
f 128/116/135 126/111/135 167/132/135
f 139/124/132 145/123/132 149/123/132
f 138/123/129 139/124/129 149/123/129
f 138/123/141 149/123/141 148/126/141
f 141/121/140 134/122/140 135/121/140
f 129/115/131 128/116/131 136/119/131
f 113/105/132 120/104/132 114/104/132
f 182/136/151 180/137/151 184/138/151
f 181/128/132 178/139/132 182/136/132
f 183/140/152 178/139/152 177/134/152
f 178/141/153 180/137/153 182/136/153
f 181/128/154 185/114/154 186/110/154
f 179/123/151 181/128/151 184/138/151
f 181/128/151 182/136/151 184/138/151
f 181/128/132 177/134/132 178/139/132
f 177/134/152 175/103/152 183/140/152
f 183/140/152 176/142/152 178/139/152
f 178/141/153 176/143/153 180/137/153
f 175/108/154 177/135/154 186/110/154
f 177/135/154 181/128/154 186/110/154
f 181/128/154 179/123/154 185/114/154
f 190/142/155 188/144/155 187/142/155
f 191/145/156 187/143/156 189/146/156
f 191/147/157 190/142/157 187/142/157
f 193/147/158 191/147/158 192/148/158
f 194/149/159 192/150/159 191/145/159
f 191/147/158 193/147/158 190/142/158
f 191/145/160 189/146/160 194/149/160
f 194/149/161 189/146/161 198/151/161
f 194/149/162 195/149/162 199/152/162
f 197/153/132 195/149/132 194/149/132
f 194/149/159 196/152/159 192/150/159
f 194/149/163 199/152/163 196/152/163
f 194/149/161 198/151/161 197/153/161
f 196/152/142 199/152/142 200/154/142
f 195/149/164 200/154/164 199/152/164
f 195/149/165 201/153/165 200/154/165
f 201/153/166 202/155/166 200/154/166
f 203/154/142 200/154/142 202/155/142
f 196/152/142 200/154/142 203/154/142
f 204/156/167 203/154/167 205/155/167
f 204/156/167 196/152/167 203/154/167
f 203/154/142 202/155/142 205/155/142
f 205/155/168 202/155/168 209/157/168
f 206/158/169 205/155/169 207/159/169
f 204/156/170 205/155/170 206/158/170
f 208/157/171 207/159/171 205/155/171
f 205/155/172 209/157/172 208/157/172
f 208/157/132 209/157/132 201/153/132
f 201/153/173 209/157/173 202/155/173
f 211/160/174 208/157/174 210/161/174
f 208/157/175 198/151/175 210/161/175
f 208/157/176 211/160/176 207/159/176
f 208/157/177 197/153/177 198/151/177
f 208/157/132 201/153/132 197/153/132
f 215/137/178 211/160/178 212/137/178
f 211/160/179 210/161/179 212/137/179
f 214/159/180 207/159/180 211/160/180
f 215/137/181 213/160/181 211/160/181
f 214/159/181 211/160/181 213/160/181
f 216/162/182 215/137/182 212/137/182
f 218/162/183 215/137/183 216/162/183
f 218/162/183 217/137/183 215/137/183
f 217/137/184 213/160/184 215/137/184
f 220/162/185 217/137/185 218/162/185
f 221/163/186 219/163/186 218/162/186
f 222/163/187 218/162/187 219/163/187
f 221/163/186 218/162/186 216/162/186
f 222/163/187 220/162/187 218/162/187
f 222/163/187 219/163/187 226/164/187
f 223/163/187 222/163/187 224/164/187
f 222/163/187 223/163/187 225/162/187
f 222/163/187 226/164/187 224/164/187
f 222/163/187 225/162/187 220/162/187
f 227/165/186 226/164/186 228/164/186
f 227/165/187 224/164/187 226/164/187
f 219/163/186 228/164/186 226/164/186
f 229/165/188 228/164/188 230/164/188
f 227/165/186 228/164/186 229/165/186
f 221/163/188 230/164/188 228/164/188
f 219/163/186 221/163/186 228/164/186
f 229/165/189 230/164/189 231/165/189
f 221/163/190 232/163/190 230/164/190
f 232/163/191 216/162/191 233/162/191
f 232/163/192 221/163/192 216/162/192
f 216/162/193 212/137/193 233/162/193
f 235/136/194 231/165/194 234/136/194
f 235/136/195 229/165/195 231/165/195
f 235/136/196 227/165/196 229/165/196
f 207/159/197 214/159/197 235/136/197
f 214/159/184 236/136/184 235/136/184
f 207/159/198 235/136/198 234/136/198
f 235/136/196 236/136/196 227/165/196
f 236/136/199 241/165/199 227/165/199
f 214/159/184 237/159/184 236/136/184
f 240/159/200 236/136/200 237/159/200
f 240/159/200 238/136/200 236/136/200
f 238/136/200 239/136/200 236/136/200
f 236/136/199 239/136/199 241/165/199
f 243/136/142 241/165/142 239/136/142
f 243/136/142 242/165/142 241/165/142
f 244/165/187 241/165/187 242/165/187
f 244/165/187 227/165/187 241/165/187
f 227/165/187 244/165/187 224/164/187
f 244/165/187 245/165/187 247/164/187
f 246/136/142 245/165/142 244/165/142
f 244/165/187 247/164/187 224/164/187
f 244/165/201 243/136/201 238/136/201
f 246/136/142 244/165/142 238/136/142
f 244/165/201 242/165/201 243/136/201
f 246/136/201 247/164/201 245/165/201
f 246/136/201 248/159/201 247/164/201
f 223/163/201 247/164/201 248/159/201
f 223/163/187 224/164/187 247/164/187
f 248/159/200 246/136/200 238/136/200
f 249/160/200 248/159/200 240/159/200
f 223/163/201 248/159/201 249/160/201
f 248/159/200 238/136/200 240/159/200
f 250/137/200 249/160/200 251/160/200
f 249/160/201 250/137/201 225/162/201
f 249/160/201 225/162/201 223/163/201
f 249/160/200 240/159/200 251/160/200
f 217/137/200 251/160/200 252/160/200
f 251/160/200 237/159/200 252/160/200
f 217/137/200 253/137/200 251/160/200
f 250/137/200 251/160/200 253/137/200
f 251/160/200 240/159/200 237/159/200
f 225/162/132 250/137/132 253/137/132
f 220/162/185 253/137/185 217/137/185
f 225/162/132 253/137/132 220/162/132
f 237/159/184 213/160/184 252/160/184
f 217/137/184 252/160/184 213/160/184
f 238/136/200 243/136/200 239/136/200
f 237/159/184 214/159/184 213/160/184
f 206/158/202 207/159/202 234/136/202
f 204/156/167 254/166/167 196/152/167
f 254/166/203 255/141/203 192/150/203
f 254/166/204 192/150/204 196/152/204
f 257/139/158 192/148/158 255/139/158
f 258/167/205 255/139/205 256/167/205
f 258/167/206 257/139/206 255/139/206
f 260/167/207 257/139/207 258/167/207
f 261/168/208 259/168/208 258/167/208
f 259/168/209 260/167/209 258/167/209
f 261/168/210 258/167/210 256/167/210
f 259/168/211 261/168/211 262/169/211
f 264/144/212 262/169/212 188/144/212
f 264/144/213 263/169/213 262/169/213
f 259/168/213 262/169/213 263/169/213
f 190/142/214 264/144/214 188/144/214
f 190/142/215 265/144/215 264/144/215
f 265/144/209 263/169/209 264/144/209
f 190/142/215 266/142/215 265/144/215
f 270/142/216 265/144/216 266/142/216
f 270/142/216 267/144/216 265/144/216
f 265/144/217 267/144/217 269/169/217
f 265/144/209 268/169/209 263/169/209
f 265/144/217 269/169/217 268/169/217
f 273/147/218 271/142/218 270/142/218
f 271/142/132 267/144/132 270/142/132
f 272/147/218 270/142/218 266/142/218
f 273/147/218 270/142/218 272/147/218
f 271/142/219 273/147/219 275/169/219
f 274/148/218 273/147/218 272/147/218
f 276/168/219 273/147/219 274/148/219
f 276/168/219 275/169/219 273/147/219
f 278/168/217 276/168/217 277/167/217
f 274/148/219 277/167/219 276/168/219
f 276/168/217 269/169/217 275/169/217
f 276/168/217 278/168/217 269/169/217
f 278/168/217 279/168/217 268/169/217
f 278/168/217 260/167/217 279/168/217
f 278/168/217 268/169/217 269/169/217
f 278/168/217 280/167/217 260/167/217
f 278/168/217 277/167/217 280/167/217
f 277/167/142 281/139/142 280/167/142
f 280/167/217 283/167/217 260/167/217
f 281/139/219 282/167/219 280/167/219
f 280/167/217 282/167/217 283/167/217
f 260/167/220 283/167/220 284/139/220
f 282/167/142 284/139/142 283/167/142
f 282/167/142 285/139/142 284/139/142
f 281/139/218 284/139/218 285/139/218
f 281/139/218 286/139/218 284/139/218
f 260/167/220 284/139/220 286/139/220
f 260/167/207 286/139/207 257/139/207
f 286/139/221 288/148/221 257/139/221
f 286/139/221 287/148/221 288/148/221
f 286/139/218 289/148/218 287/148/218
f 286/139/218 281/139/218 289/148/218
f 289/148/218 290/147/218 287/148/218
f 291/139/218 274/148/218 289/148/218
f 274/148/218 272/147/218 289/148/218
f 291/139/218 289/148/218 281/139/218
f 289/148/218 272/147/218 290/147/218
f 277/167/142 291/139/142 281/139/142
f 274/148/219 291/139/219 277/167/219
f 193/147/221 290/147/221 266/142/221
f 272/147/218 266/142/218 290/147/218
f 290/147/221 288/148/221 287/148/221
f 290/147/221 193/147/221 288/148/221
f 257/139/158 288/148/158 192/148/158
f 193/147/158 192/148/158 288/148/158
f 281/139/219 285/139/219 282/167/219
f 259/168/209 279/168/209 260/167/209
f 279/168/209 263/169/209 268/169/209
f 279/168/209 259/168/209 263/169/209
f 267/144/217 292/144/217 275/169/217
f 271/142/219 275/169/219 292/144/219
f 267/144/217 275/169/217 269/169/217
f 271/142/132 292/144/132 267/144/132
f 193/147/221 266/142/221 190/142/221
f 197/153/132 201/153/132 195/149/132
f 298/128/154 293/108/154 294/135/154
f 295/142/152 294/134/152 293/103/152
f 297/137/142 295/170/142 293/105/142
f 298/128/154 296/123/154 293/108/154
f 297/137/142 293/105/142 296/123/142
f 300/139/132 298/128/132 294/134/132
f 300/139/132 299/136/132 298/128/132
f 299/136/151 296/123/151 298/128/151
f 300/141/153 295/143/153 297/137/153
f 295/142/152 300/139/152 294/134/152
f 300/141/153 297/137/153 299/136/153
f 299/136/151 297/137/151 296/123/151
f 306/128/154 301/108/154 302/135/154
f 303/142/152 302/134/152 301/103/152
f 305/137/142 303/170/142 301/105/142
f 306/128/154 304/123/154 301/108/154
f 305/137/142 301/105/142 304/123/142
f 308/139/132 306/128/132 302/134/132
f 308/139/132 307/136/132 306/128/132
f 307/136/151 304/123/151 306/128/151
f 308/141/153 303/143/153 305/137/153
f 303/142/152 308/139/152 302/134/152
f 308/141/153 305/137/153 307/136/153
f 307/136/151 305/137/151 304/123/151
o 服
v 1.437600 9.046139 -0.891534
v 1.437180 9.038279 0.271692
v -1.451506 9.069852 -0.891534
v -1.451489 9.059649 0.271692
v 0.828345 6.800039 -0.758825
v 0.843898 6.783919 0.450237
v -0.843898 6.783919 0.450237
v -0.843898 6.783919 -0.758825
v 0.998649 8.596257 -0.891534
v 1.275186 8.496004 0.271692
v -1.302185 8.477589 0.271693
v -1.280839 8.484097 -0.891534
v 0.003278 9.201760 0.574795
v -0.000000 9.389251 -1.015815
v -0.000000 6.783919 -0.758825
v 0.000000 6.783919 0.450237
v 0.001503 8.380603 -1.015815
v 0.000000 8.356004 1.013947
v 0.820345 9.441813 -1.015815
v 0.421949 6.783919 -0.758825
v 0.661394 8.521888 -1.015815
v 1.013599 9.204720 0.574795
v 0.421949 6.783919 0.450237
v 1.088568 8.401889 1.013947
v -1.008378 9.202079 0.574795
v -0.421949 6.783919 0.450237
v -1.093458 8.393186 1.013947
v -0.805775 9.439287 -1.015815
v -0.421949 6.783919 -0.758825
v -0.694870 8.425057 -1.015815
v 0.994537 8.079983 -0.718593
v 1.660378 8.299049 -0.718593
v 1.674119 8.324677 0.277966
v 1.063894 8.100224 0.277966
v -1.185332 8.077437 0.277967
v -1.760139 8.370985 0.277967
v -1.759628 8.369900 -0.718593
v -1.175542 8.074021 -0.718593
v 1.435770 9.011961 -0.019114
v 0.843898 6.783919 0.289185
v 1.284949 8.492466 -0.019114
v 1.042636 8.094020 -0.105585
v -1.735629 8.318966 -0.105584
v -1.451445 9.033312 -0.019114
v -0.843898 6.783919 0.289185
v -1.327574 8.469847 -0.019114
v 0.003743 9.222673 0.548436
v 1.000692 9.436030 0.384900
v -0.988342 9.438125 0.384900
v 1.645393 8.271103 -0.105585
v -1.183028 8.076633 -0.105584
v -1.451471 9.049221 -0.600727
v -0.843898 6.783919 -0.409489
v -1.314847 8.473727 -0.600727
v -0.000000 9.389251 -0.671232
v 1.009862 9.439488 -0.671232
v -0.995518 9.441264 -0.671232
v 1.646124 8.272466 -0.514257
v -1.175164 8.073889 -0.514257
v 1.436588 9.027229 -0.600727
v 0.832814 6.795406 -0.409489
v 1.182202 8.529715 -0.600727
v 1.015385 8.086067 -0.514257
v -1.740851 8.330049 -0.514257
vn -0.9233 0.2537 0.2885
vn 0.3571 -0.0617 -0.9320
vn 0.5569 0.7741 -0.3010
vn 0.0058 -0.1471 -0.9891
vn -0.9633 -0.2685 -0.0000
vn -0.0000 -0.3306 0.9438
vn 0.9697 -0.2443 -0.0000
vn -0.0000 -0.3375 0.9413
vn -0.0000 -0.1589 -0.9873
vn 0.0522 0.9984 0.0230
vn -0.0000 -0.0000 -1.0000
vn -0.0202 0.4784 0.8779
vn 0.9359 0.2322 0.2648
vn -0.0000 -0.3290 0.9443
vn -0.0639 0.9980 -0.0000
vn -0.2131 -0.0621 -0.9751
vn -0.6462 0.7613 0.0541
vn -0.0000 -0.1547 -0.9880
vn 0.0162 0.4757 0.8794
vn 0.1761 -0.1718 -0.9693
vn 0.9566 0.2904 0.0222
vn -0.0673 0.0201 -0.9975
vn -0.8818 0.4702 -0.0353
vn 0.0129 0.0033 0.9999
vn -0.9120 0.4084 -0.0371
vn -0.9571 -0.2789 -0.0785
vn 0.9479 0.2946 0.1214
vn 0.9396 0.3419 0.0158
vn -0.9272 0.3743 0.0103
vn -0.9310 0.3608 0.0551
vn 0.9624 0.2713 0.0085
vn -0.6614 0.7500 0.0067
vn 0.9596 -0.2135 -0.1832
vn -0.9612 -0.2758 -0.0000
vn 0.6930 0.7207 0.0199
vn 0.6231 0.5167 0.5871
vn -0.9653 -0.2612 -0.0000
vn 0.0002 0.6268 0.7792
vn -0.0658 0.7823 0.6195
vn -0.6208 0.7808 -0.0708
vn 0.9486 0.3147 -0.0331
vn 0.9563 0.2778 -0.0909
vn 0.9799 -0.1991 -0.0152
vn -0.8094 0.1923 0.5549
vn -0.9122 0.4087 0.0291
vn -0.5293 -0.1358 0.8375
vn 0.1221 -0.1191 -0.9854
vn 0.6897 0.7224 0.0494
vn 0.3638 -0.1029 -0.9258
vn -0.9591 -0.2559 -0.1213
vn -0.9433 -0.2301 0.2391
vn 0.9692 -0.2438 0.0355
vn 0.0141 -0.3341 0.9424
vn -0.0100 -0.1563 -0.9877
vn 0.0620 0.9981 -0.0000
vn -0.0013 0.4608 0.8875
vn 0.5324 -0.1591 0.8314
vn 0.9527 -0.2179 0.2119
vn 0.0322 -0.1505 -0.9881
vn -0.0497 0.9982 0.0340
vn -0.1782 -0.0195 -0.9838
vn -0.5167 0.8059 -0.2891
vn -0.2183 -0.1316 -0.9670
vn -0.0114 -0.3348 0.9422
vn 0.0001 0.4608 0.8875
vn 0.1042 -0.3166 -0.9428
vn 0.9554 0.2770 0.1027
vn -0.0029 0.0078 1.0000
vn -0.8575 0.5130 0.0392
vn 0.0094 0.0184 0.9998
vn -0.9189 0.3789 -0.1101
vn -0.0998 -0.1970 -0.9753
vn 0.9442 0.3295 -0.0015
vn 0.9423 0.3341 0.0228
vn -0.9299 0.3673 0.0218
vn -0.8572 0.4817 0.1823
vn 0.9635 0.2678 0.0026
vn -0.6500 0.7597 0.0208
vn 0.9672 -0.2532 -0.0195
vn -0.9624 -0.2708 -0.0229
vn 0.7020 0.7122 0.0084
vn 0.6618 0.7464 -0.0708
vn -0.9615 -0.2592 0.0908
vn 0.0673 0.7810 0.6208
vn -0.0019 0.6345 0.7730
vn -0.5870 0.5371 0.6057
vn 0.9528 0.2825 -0.1108
vn 0.9389 0.3441 0.0049
vn 0.8271 -0.1190 -0.5493
vn -0.9272 0.3650 0.0837
vn -0.9092 0.3849 0.1586
vt 0.625000 0.437500
vt 0.565780 0.500000
vt 0.565780 0.437500
vt 0.625000 0.937500
vt 0.565780 1.000000
vt 0.565780 0.937500
vt 0.812500 0.687500
vt 0.875000 0.750000
vt 0.812500 0.750000
vt 0.500000 1.000000
vt 0.500000 0.937500
vt 0.565780 0.687500
vt 0.500000 0.750000
vt 0.500000 0.687500
vt 0.500000 0.500000
vt 0.500000 0.437500
vt 0.500000 0.187500
vt 0.565780 0.250000
vt 0.500000 0.250000
vt 0.500000 0.312500
vt 0.565780 0.375000
vt 0.500000 0.375000
vt 0.500000 0.812500
vt 0.565780 0.875000
vt 0.500000 0.875000
vt 0.750000 0.687500
vt 0.687500 0.750000
vt 0.687500 0.687500
vt 0.625000 0.812500
vt 0.565780 0.812500
vt 0.625000 0.312500
vt 0.565780 0.312500
vt 0.750000 0.750000
vt 0.625000 0.875000
vt 0.625000 0.750000
vt 0.565780 0.750000
vt 0.625000 0.687500
vt 0.625000 0.000000
vt 0.565780 0.000000
vt 0.625000 0.062500
vt 0.625000 0.250000
vt 0.565780 0.187500
vt 0.625000 0.500000
vt 0.625000 0.562500
vt 0.565780 0.562500
vt 0.565780 0.062500
vt 0.625000 0.187500
vt 0.687500 0.562500
vt 0.500000 0.062500
vt 0.500000 0.562500
vt 0.875000 0.562500
vt 0.875000 0.687500
vt 0.875000 0.500000
vt 0.812500 0.562500
vt 0.812500 0.500000
vt 0.750000 0.500000
vt 0.687500 0.500000
vt 0.750000 0.562500
vt 0.500000 0.000000
vt 0.625000 1.000000
vt 0.625000 0.375000
s 0
f 333/171/222 319/172/222 335/173/222
f 327/174/223 317/175/223 329/176/223
f 364/177/224 309/178/224 327/179/224
f 329/176/225 313/180/225 328/181/225
f 362/182/226 316/183/226 361/184/226
f 335/173/227 315/185/227 334/186/227
f 348/187/228 318/188/228 314/189/228
f 331/190/229 326/191/229 324/192/229
f 337/193/230 325/194/230 323/195/230
f 363/196/231 336/197/231 365/198/231
f 336/199/232 325/194/232 338/200/232
f 330/201/233 326/191/233 332/202/233
f 318/188/234 330/201/234 332/202/234
f 314/189/235 332/202/235 331/190/235
f 325/194/230 328/181/230 323/195/230
f 363/196/236 327/179/236 322/203/236
f 322/204/232 329/176/232 325/194/232
f 311/205/237 338/200/237 320/206/237
f 365/198/238 311/205/238 360/207/238
f 316/183/239 338/200/239 337/193/239
f 326/191/229 334/186/229 324/192/229
f 326/191/240 333/171/240 335/173/240
f 340/208/241 317/209/241 309/208/241
f 368/210/242 340/208/242 309/208/242
f 342/188/243 310/211/243 318/188/243
f 349/212/244 342/188/244 318/188/244
f 344/213/245 319/172/245 312/213/245
f 352/214/246 344/213/246 312/213/246
f 346/206/247 311/205/247 320/206/247
f 362/182/248 346/206/248 320/206/248
f 367/182/249 354/215/249 359/215/249
f 372/207/250 352/214/250 360/207/250
f 350/212/251 370/216/251 371/216/251
f 358/217/252 368/210/252 347/217/252
f 365/198/253 352/214/253 357/218/253
f 349/212/254 369/219/254 370/216/254
f 354/215/255 361/184/255 353/220/255
f 364/177/256 347/221/256 368/222/256
f 310/223/257 356/224/257 330/225/257
f 319/172/258 353/220/258 315/185/258
f 321/226/259 357/218/259 333/227/259
f 321/226/260 356/224/260 355/228/260
f 312/213/261 357/218/261 352/214/261
f 341/211/262 347/217/262 310/211/262
f 343/172/263 354/215/263 319/172/263
f 313/229/264 370/216/264 369/219/264
f 339/209/265 370/216/265 317/209/265
f 345/205/266 360/207/266 311/205/266
f 333/171/267 312/213/267 319/172/267
f 327/174/268 309/230/268 317/175/268
f 364/177/269 368/222/269 309/178/269
f 329/176/270 317/175/270 313/180/270
f 362/182/271 320/206/271 316/183/271
f 335/173/272 319/172/272 315/185/272
f 348/187/273 349/212/273 318/188/273
f 331/190/274 332/202/274 326/191/274
f 337/193/275 338/200/275 325/194/275
f 363/196/276 322/203/276 336/197/276
f 336/199/232 322/204/232 325/194/232
f 330/201/277 321/231/277 326/191/277
f 318/188/278 310/211/278 330/201/278
f 314/189/279 318/188/279 332/202/279
f 325/194/280 329/176/280 328/181/280
f 363/196/281 364/177/281 327/179/281
f 322/204/232 327/174/232 329/176/232
f 311/205/282 336/199/282 338/200/282
f 365/198/283 336/197/283 311/205/283
f 316/183/284 320/206/284 338/200/284
f 326/191/285 335/173/285 334/186/285
f 326/191/286 321/231/286 333/171/286
f 340/208/287 339/209/287 317/209/287
f 368/210/288 366/210/288 340/208/288
f 342/188/289 341/211/289 310/211/289
f 349/212/290 350/212/290 342/188/290
f 344/213/291 343/172/291 319/172/291
f 352/214/292 351/214/292 344/213/292
f 346/206/293 345/205/293 311/205/293
f 362/182/294 367/182/294 346/206/294
f 367/182/295 362/182/295 354/215/295
f 372/207/296 351/214/296 352/214/296
f 350/212/297 349/212/297 370/216/297
f 358/217/298 366/210/298 368/210/298
f 365/198/299 360/207/299 352/214/299
f 349/212/300 348/187/300 369/219/300
f 354/215/301 362/182/301 361/184/301
f 364/177/302 356/224/302 347/221/302
f 310/223/303 347/221/303 356/224/303
f 319/172/304 354/215/304 353/220/304
f 321/226/305 355/228/305 357/218/305
f 321/226/306 330/225/306 356/224/306
f 312/213/307 333/227/307 357/218/307
f 341/211/308 358/217/308 347/217/308
f 343/172/309 359/215/309 354/215/309
f 313/229/310 317/209/310 370/216/310
f 339/209/311 371/216/311 370/216/311
f 345/205/312 372/207/312 360/207/312
o スカート
v 1.577752 5.360087 -1.409341
v 1.700735 5.361703 1.038488
v -1.577753 5.360087 -1.409341
v -1.700735 5.361703 1.038488
v 0.909480 6.946840 0.544691
v -0.909480 6.946840 0.544691
v -0.909480 6.946840 -0.824096
v 0.909480 6.946840 -0.824096
v -1.862557 5.361703 0.653154
v 0.909480 6.946840 0.402339
v 1.862557 5.361703 0.653154
v -0.909480 6.946840 0.270100
v 1.862557 5.361703 -0.506585
v -0.909480 6.946840 -0.391020
v -1.862557 5.361703 -0.506585
v 0.909480 6.946840 -0.391020
v 1.589672 6.038298 0.862343
v -1.589671 6.038298 0.862343
v -1.512430 6.118835 -1.187472
v 1.512429 6.118835 -1.187472
v -1.691308 6.038298 0.510105
v 1.691308 6.038298 0.576224
v 1.691308 6.038298 -0.467368
v -1.691308 6.038298 -0.467368
vn 0.7278 0.6352 0.2585
vn -0.7756 0.6190 -0.1234
vn -0.0000 0.2807 -0.9598
vn -0.0000 0.2519 0.9677
vn -0.9694 0.2454 -0.0000
vn 0.9694 0.2454 -0.0000
vn -0.7443 0.6323 0.2148
vn 0.7756 0.6190 -0.1234
vn 0.9401 0.1677 -0.2969
vn -0.8940 0.2445 0.3754
vn 0.7580 0.6523 -0.0000
vn -0.7580 0.6523 -0.0000
vn -0.0000 0.3300 0.9440
vn -0.0000 0.4019 -0.9157
vn -0.9401 0.1677 -0.2969
vn 0.8940 0.2445 0.3754
vn 0.9456 0.2513 -0.2068
vn -0.9198 0.2889 0.2654
vn -0.9456 0.2513 -0.2068
vn 0.9082 0.2666 0.3226
vt 0.406250 0.187500
vt 0.437500 0.250000
vt 0.406250 0.250000
vt 0.406250 0.687500
vt 0.437500 0.750000
vt 0.406250 0.750000
vt 0.406250 1.000000
vt 0.375000 0.750000
vt 0.406250 0.500000
vt 0.375000 0.250000
vt 0.406250 0.562500
vt 0.375000 0.687500
vt 0.375000 0.562500
vt 0.375000 0.062500
vt 0.406250 0.062500
vt 0.437500 0.500000
vt 0.437500 0.000000
vt 0.406250 0.000000
vt 0.375000 0.000000
vt 0.375000 0.500000
vt 0.437500 0.187500
vt 0.437500 0.062500
vt 0.437500 0.562500
vt 0.375000 0.187500
vt 0.437500 0.687500
vt 0.375000 1.000000
vt 0.437500 1.000000
s 0
f 394/232/313 377/233/313 389/234/313
f 396/235/314 379/236/314 391/237/314
f 392/238/315 375/239/315 391/237/315
f 390/240/316 374/241/316 389/234/316
f 393/242/317 387/243/317 381/244/317
f 394/232/318 385/245/318 395/246/318
f 378/247/319 393/242/319 390/240/319
f 380/248/320 395/246/320 392/249/320
f 392/249/321 385/245/321 373/250/321
f 390/240/322 381/244/322 376/251/322
f 382/252/323 395/246/323 388/253/323
f 384/254/324 396/235/324 393/242/324
f 377/233/325 390/240/325 389/234/325
f 379/236/326 392/238/326 391/237/326
f 387/243/327 391/237/327 375/239/327
f 383/255/328 389/234/328 374/241/328
f 394/232/323 382/252/323 377/233/323
f 396/235/324 386/256/324 379/236/324
f 392/238/315 373/257/315 375/239/315
f 390/240/316 376/251/316 374/241/316
f 393/242/317 396/235/317 387/243/317
f 394/232/318 383/255/318 385/245/318
f 378/247/324 384/254/324 393/242/324
f 380/248/323 388/253/323 395/246/323
f 392/249/329 395/246/329 385/245/329
f 390/240/330 393/242/330 381/244/330
f 382/252/323 394/232/323 395/246/323
f 384/254/324 386/256/324 396/235/324
f 377/233/325 378/247/325 390/240/325
f 379/236/326 380/258/326 392/238/326
f 387/243/331 396/235/331 391/237/331
f 383/255/332 394/232/332 389/234/332
